PathFileType	4	(X/Y/Z)	C:/Users/beibeiliu/ov580/test_trc/capture2\sequence.13_training_dense_right.trc
DataRate	CameraRate	NumFrames	NumMarkers	Units	OrigDataRate	OrigDataStartFrame	OrigNumFrames
120	120	12	19	mm	120	1	369
Frame#	Time	ThumbCMC			ThumbMCP			ThumbIP			ThumbTip			IndexMCP			IndexPIP			IndexTip			MiddleMCP			MiddlePIP			MiddleTip			RingMCP			RingPIP			RingTip			PinkyMCP			PinkyPIP			PinkyTip			BackHand1			BackHand2			BackHand3	
		X0	Y0	Z0	X1	Y1	Z1	X2	Y2	Z2	X3	Y3	Z3	X4	Y4	Z4	X5	Y5	Z5	X6	Y6	Z6	X7	Y7	Z7	X8	Y8	Z8	X9	Y9	Z9	X10	Y10	Z10	X11	Y11	Z11	X12	Y12	Z12	X13	Y13	Z13	X14	Y14	Z14	X15	Y15	Z15	X16	Y16	Z16	X17	Y17	Z17	X18	Y18	Z18	
0	0	124.61	42.5743	5.78589	101.017	31.0312	-11.5099	86.9441	24.9005	-34.2467	75.6388	20.543	-51.8844	138.207	51.3857	-67.7078	133.084	46.1517	-95.1348	129.154	46.3199	-115.512	169.305	49.878	-71.4973	168.962	45.9374	-97.2092	176.221	41.6678	-125.243	187.377	41.0247	-66.1959	194.06	36.803	-89.7619	203.368	34.0834	-114.677	205.17	30.7385	-51.2461	217.665	25.1449	-67.856	233.28	25.7947	-82.3167	182.882	54.0182	-17.1858	180.511	59.9554	13.5366	151.474	62.5801	-3.85999	
1	0.00833333	121.481	43.3225	1.33594	104.096	31.3367	-10.2413	87.3393	25.8052	-35.2976	72.6732	21.2002	-48.8173	136.902	51.8509	-67.2399	129.662	49.1059	-93.9983	131.161	46.9528	-119.079	163.998	51.3675	-70.7881	166.97	47.0398	-101.21	173.914	43.5633	-127.278	183.962	43.1045	-68.78	195.991	37.4735	-86.3746	199.645	35.1245	-115.101	202.976	31.8069	-50.8916	217.03	26.6447	-69.253	229.517	27.1565	-88.1812	181.367	54.4252	-16.9746	179.687	59.5066	13.3126	150.056	64.2233	-6.7645	
2	0.0166667	120.086	44.1964	6.89298	103.746	31.2753	-12.4519	85.3878	26.6209	-33.7851	75.1546	21.8559	-51.2249	136.486	53.1991	-67.3839	128.393	50.6385	-90.0499	130.959	48.482	-115.912	163.677	52.3177	-75.8315	165.466	48.4108	-100.693	173.016	44.637	-128.494	185.697	43.9517	-67.0278	190.893	39.4749	-87.3639	198.544	35.3951	-114.233	202.929	34.5026	-52.5607	214.869	27.4703	-67.662	227.164	29.1951	-85.2008	181.847	55.3976	-17.9858	182.586	60.4255	10.7908	151.568	65.1152	-4.89358	
3	0.025	118.777	44.8603	3.9088	101.256	32.5353	-9.59298	85.5147	27.1958	-35.1513	72.2915	21.878	-51.4566	134.033	54.7966	-65.3333	127.52	51.1795	-94.2263	131.165	49.5301	-117.605	166.748	53.3106	-73.3745	168.512	49.0574	-101.321	173.808	45.2676	-126.429	183.866	46.5806	-69.0672	192.081	41.3433	-91.4689	196.196	36.8728	-115.561	201.838	35.6285	-51.7284	212.128	29.3654	-66.8303	229.038	30.9476	-88.6837	178.997	58.457	-18.321	180.539	59.3337	13.5548	147.679	65.2264	-8.39619	
4	0.0333333	117.95	46.1152	2.51828	102.381	32.7338	-10.755	85.2638	27.6802	-33.4713	73.0489	21.5749	-52.1913	135.376	55.9284	-69.2691	127.686	53.2324	-91.1717	131.302	49.8524	-116.819	161.778	54.9633	-70.5536	165.885	49.6158	-101.5	169.907	47.4638	-125.257	182.404	46.0639	-64.4181	188.895	42.0556	-92.7386	196.109	38.6119	-117.406	202.337	34.9112	-49.1568	214.135	30.5707	-71.4146	228.56	30.3606	-89.5462	179.63	57.8172	-15.1501	183.937	60.9881	13.3961	153.154	65.0751	-4.30358	
5	0.0416667	118.922	45.7496	1.34425	104.675	32.3818	-11.9226	88.3561	27.086	-30.0228	75.1093	22.1917	-49.2399	132.646	56.2771	-67.534	131.6	52.9602	-94.2165	125.017	51.6273	-119.306	164.3	55.516	-70.8024	168.107	51.4924	-98.172	169.046	48.2362	-124.155	181.958	47.8144	-68.3445	191.61	43.6231	-89.533	193.217	39.5324	-114.245	204.883	35.6325	-52.5313	211.515	31.6454	-69.0474	231.069	32.4594	-89.9354	184.063	56.919	-17.978	181.527	60.5535	10.1567	153.209	65.5607	-8.4009	
6	0.05	121.309	45.3454	2.08438	101.408	33.9833	-10.4853	83.5895	28.5899	-32.4501	71.7791	22.72	-48.1933	133.693	57.2629	-68.0048	126.092	54.7481	-94.0932	130.13	51.9269	-118.839	161.427	57.4951	-72.4382	165.331	52.7151	-98.8237	169.434	48.8044	-126.545	185.747	48.7466	-67.9997	192.264	44.3899	-90.0744	196.316	40.643	-114.354	201.322	36.8842	-51.3175	215.814	30.5178	-70.406	230.875	31.9593	-91.0526	180.392	59.5704	-15.7921	179.128	61.41	11.9981	150.763	66.0067	-7.89042	
7	0.0583333	120.544	45.2994	6.37423	102.322	33.4111	-11.1514	85.7308	28.0813	-31.9835	72.3168	23.348	-50.4881	131.777	58.5776	-68.0268	129.04	54.0335	-96.1188	127.433	52.5833	-121.253	163.664	56.6561	-74.1244	165.745	52.7349	-100.486	172.791	48.8511	-130.459	186.48	47.8294	-68.8489	193.572	44.0161	-91.3971	193.883	41.8897	-114.853	201.521	37.3951	-50.3263	211.927	31.9973	-68.6297	230.565	33.3244	-88.3135	180.3	60.7273	-20.3718	180.222	62.2181	13.6622	148.728	67.3085	-4.97641	
8	0.0666667	123.246	44.4861	1.35379	102.791	32.6255	-10.7846	88.45	27.6732	-30.6309	73.6033	22.6408	-48.2665	133.747	57.7878	-69.2826	127.979	55.5735	-94.1814	129.379	53.0425	-116.625	164.224	56.9847	-72.6652	166.676	52.2715	-102.456	169.192	49.4934	-124.543	182.827	49.0513	-65.3374	189.882	44.2398	-88.9511	196.077	41.1218	-117.484	203.343	37.2065	-51.7221	211.902	31.6297	-71.7134	230.02	30.708	-85.9452	184.622	59.7486	-18.5433	183.773	60.747	10.694	152.418	65.6653	-3.91497	
9	0.075	121.455	45.9151	6.47737	102.718	32.1064	-11.1066	87.3617	28.0453	-30.2843	73.2781	23.5246	-49.9101	136.284	58.452	-69.1086	127.226	55.487	-90.3068	128.311	52.071	-119.065	161.467	58.1913	-75.3255	166.106	52.5829	-102.117	168.123	50.3075	-125.397	184.067	48.7235	-65.3087	188.976	44.3576	-89.1375	194.12	40.7201	-116.049	205.558	36.1164	-51.3136	213.111	31.2959	-70.747	226.695	33.028	-89.1546	179.65	57.6732	-16.1961	184.072	59.5368	9.62147	155.041	67.0961	-3.08509	
10	0.0833333	124.416	45.7113	2.87234	101.011	33.4138	-13.2146	84.7545	27.2472	-31.9347	74.387	22.18	-51.8549	135.203	58.7109	-65.3199	127.481	55.4002	-94.4813	132.349	53.1477	-117.033	164.48	56.3831	-74.3677	169.113	52.5819	-98.3012	170.935	48.2581	-125.9	186.519	47.627	-68.9257	191.025	43.6143	-89.977	195.049	39.5197	-115.97	206.143	34.1615	-51.6119	212.811	30.097	-71.0874	228.785	31.517	-92.2285	180.722	57.4242	-14.7119	183.62	60.7287	13.3587	154.418	64.4833	-2.94545	
11	0.0916667	123.31	45.2765	6.90907	106.81	33.0097	-12.4945	86.4187	27.7548	-36.2112	72.8185	23.148	-53.9579	133.821	59.0185	-67.8681	130.51	56.2179	-94.3754	130.063	53.077	-119.804	162.335	57.0256	-71.5247	168.244	52.7936	-100.347	168.522	49.1157	-127.115	186.101	47.8695	-68.4047	192.2	42.456	-89.9362	194.26	38.1727	-118.441	202.776	35.4475	-56.5568	214.814	29.3597	-73.8392	229.246	28.7029	-90.9312	183.694	56.8848	-19.9374	183.458	59.1506	11.5717	151.216	65.2698	-7.27919	
